<svg width="307" height="31" viewBox="0 0 307 31" fill="none" xmlns="http://www.w3.org/2000/svg">
<path d="M0.046875 1.25H20.457V6.30859H6.02344V12.9297H18.6602V17.9297H6.02344V30H0.046875V1.25ZM30.1836 19.1211H37.4883L33.8945 7.79297L30.1836 19.1211ZM30.5547 1.21094H37.3516L47.5469 30H41.0234L39.168 24.082H28.5625L26.5703 30H20.2812L30.5547 1.21094ZM55.5742 21.1133C55.7565 22.4284 56.1146 23.4115 56.6484 24.0625C57.625 25.2474 59.2982 25.8398 61.668 25.8398C63.0872 25.8398 64.2396 25.6836 65.125 25.3711C66.8047 24.7721 67.6445 23.6589 67.6445 22.0312C67.6445 21.0807 67.2279 20.3451 66.3945 19.8242C65.5612 19.3164 64.2526 18.8672 62.4688 18.4766L59.4219 17.793C56.4271 17.1159 54.3568 16.3802 53.2109 15.5859C51.2708 14.2578 50.3008 12.181 50.3008 9.35547C50.3008 6.77734 51.2383 4.63542 53.1133 2.92969C54.9883 1.22396 57.7422 0.371094 61.375 0.371094C64.4089 0.371094 66.9935 1.17839 69.1289 2.79297C71.2773 4.39453 72.4036 6.72526 72.5078 9.78516H66.7266C66.6224 8.05339 65.8672 6.82292 64.4609 6.09375C63.5234 5.61198 62.3581 5.37109 60.9648 5.37109C59.4154 5.37109 58.1784 5.68359 57.2539 6.30859C56.3294 6.93359 55.8672 7.80599 55.8672 8.92578C55.8672 9.95443 56.3229 10.7227 57.2344 11.2305C57.8203 11.569 59.0703 11.9661 60.9844 12.4219L65.9453 13.6133C68.1198 14.1341 69.7604 14.8307 70.8672 15.7031C72.5859 17.0573 73.4453 19.0169 73.4453 21.582C73.4453 24.2122 72.4362 26.3997 70.418 28.1445C68.4128 29.8763 65.5742 30.7422 61.9023 30.7422C58.1523 30.7422 55.2031 29.8893 53.0547 28.1836C50.9062 26.4648 49.832 24.1081 49.832 21.1133H55.5742ZM77.8594 30V1.21094H83.8164V12.1875H95.0664V1.21094H101.043V30H95.0664V17.1484H83.8164V30H77.8594ZM112.312 30H106.336V1.21094H112.312V30ZM130.672 25.7031C133.055 25.7031 134.943 24.8242 136.336 23.0664C137.742 21.3086 138.445 18.8086 138.445 15.5664C138.445 12.3372 137.742 9.84375 136.336 8.08594C134.943 6.3151 133.055 5.42969 130.672 5.42969C128.289 5.42969 126.388 6.30859 124.969 8.06641C123.549 9.82422 122.84 12.3242 122.84 15.5664C122.84 18.8086 123.549 21.3086 124.969 23.0664C126.388 24.8242 128.289 25.7031 130.672 25.7031ZM144.461 15.5664C144.461 20.7357 143.009 24.694 140.105 27.4414C137.931 29.681 134.786 30.8008 130.672 30.8008C126.557 30.8008 123.413 29.681 121.238 27.4414C118.322 24.694 116.863 20.7357 116.863 15.5664C116.863 10.293 118.322 6.33464 121.238 3.69141C123.413 1.45182 126.557 0.332031 130.672 0.332031C134.786 0.332031 137.931 1.45182 140.105 3.69141C143.009 6.33464 144.461 10.293 144.461 15.5664ZM148.973 1.21094H155.281L166.746 21.3086V1.21094H172.352V30H166.336L154.578 9.55078V30H148.973V1.21094ZM194.188 10.3711C194.188 8.8737 193.79 7.80599 192.996 7.16797C192.215 6.52995 191.115 6.21094 189.695 6.21094H184.09V14.6875H189.695C191.115 14.6875 192.215 14.3424 192.996 13.6523C193.79 12.9622 194.188 11.8685 194.188 10.3711ZM200.145 10.332C200.145 13.7305 199.285 16.1328 197.566 17.5391C195.848 18.9453 193.393 19.6484 190.203 19.6484H184.09V30H178.113V1.21094H190.652C193.543 1.21094 195.848 1.95312 197.566 3.4375C199.285 4.92188 200.145 7.22005 200.145 10.332ZM204.656 1.21094H210.77V18.9062C210.77 20.8854 211.004 22.3307 211.473 23.2422C212.202 24.8568 213.79 25.6641 216.238 25.6641C218.673 25.6641 220.255 24.8568 220.984 23.2422C221.453 22.3307 221.688 20.8854 221.688 18.9062V1.21094H227.801V18.9062C227.801 21.9661 227.326 24.349 226.375 26.0547C224.604 29.1797 221.225 30.7422 216.238 30.7422C211.251 30.7422 207.866 29.1797 206.082 26.0547C205.132 24.349 204.656 21.9661 204.656 18.9062V1.21094ZM233.562 1.21094H239.578V24.8242H253.836V30H233.562V1.21094ZM262.371 21.1133C262.553 22.4284 262.911 23.4115 263.445 24.0625C264.422 25.2474 266.095 25.8398 268.465 25.8398C269.884 25.8398 271.036 25.6836 271.922 25.3711C273.602 24.7721 274.441 23.6589 274.441 22.0312C274.441 21.0807 274.025 20.3451 273.191 19.8242C272.358 19.3164 271.049 18.8672 269.266 18.4766L266.219 17.793C263.224 17.1159 261.154 16.3802 260.008 15.5859C258.068 14.2578 257.098 12.181 257.098 9.35547C257.098 6.77734 258.035 4.63542 259.91 2.92969C261.785 1.22396 264.539 0.371094 268.172 0.371094C271.206 0.371094 273.79 1.17839 275.926 2.79297C278.074 4.39453 279.201 6.72526 279.305 9.78516H273.523C273.419 8.05339 272.664 6.82292 271.258 6.09375C270.32 5.61198 269.155 5.37109 267.762 5.37109C266.212 5.37109 264.975 5.68359 264.051 6.30859C263.126 6.93359 262.664 7.80599 262.664 8.92578C262.664 9.95443 263.12 10.7227 264.031 11.2305C264.617 11.569 265.867 11.9661 267.781 12.4219L272.742 13.6133C274.917 14.1341 276.557 14.8307 277.664 15.7031C279.383 17.0573 280.242 19.0169 280.242 21.582C280.242 24.2122 279.233 26.3997 277.215 28.1445C275.21 29.8763 272.371 30.7422 268.699 30.7422C264.949 30.7422 262 29.8893 259.852 28.1836C257.703 26.4648 256.629 24.1081 256.629 21.1133H262.371ZM305.984 6.30859H290.75V12.4219H304.734V17.4219H290.75V24.8242H306.688V30H284.871V1.21094H305.984V6.30859Z" fill="black"/>
</svg>
