<svg width="644" height="36" viewBox="0 0 644 36" fill="none" xmlns="http://www.w3.org/2000/svg">
<path d="M0.88 35L7.408 1.4H13.552L21.088 21.224L28.624 1.4H34.768L41.296 35H33.952L30.448 16.856L23.584 35H18.592L11.728 16.856L8.224 35H0.88ZM65.2675 35V1.4H86.6755V8.6H72.4675V13.4H83.4115V20.6H72.4675V27.8H86.6755V35H65.2675ZM111.139 35V1.4H118.915L131.203 21.992V1.4H138.403V35H130.627L118.339 14.408V35H111.139ZM161.466 13.928L162.954 1.4H170.154L166.266 13.928H161.466ZM205.984 35.624C204.096 35.624 202.288 35.328 200.56 34.736C198.832 34.128 197.32 33.264 196.024 32.144C194.728 31.008 193.792 29.656 193.216 28.088L199.984 25.592C200.144 26.056 200.496 26.504 201.04 26.936C201.6 27.368 202.304 27.728 203.152 28.016C204 28.288 204.944 28.424 205.984 28.424C206.944 28.424 207.848 28.288 208.696 28.016C209.544 27.728 210.232 27.336 210.76 26.84C211.288 26.344 211.552 25.768 211.552 25.112C211.552 24.44 211.272 23.888 210.712 23.456C210.168 23.008 209.464 22.656 208.6 22.4C207.752 22.128 206.88 21.928 205.984 21.8C203.552 21.448 201.368 20.872 199.432 20.072C197.512 19.256 195.992 18.136 194.872 16.712C193.768 15.288 193.216 13.48 193.216 11.288C193.216 9.192 193.808 7.36 194.992 5.792C196.176 4.208 197.736 2.976 199.672 2.096C201.624 1.216 203.728 0.775997 205.984 0.775997C207.872 0.775997 209.68 1.08 211.408 1.688C213.152 2.28 214.672 3.144 215.968 4.28C217.264 5.416 218.192 6.776 218.752 8.36L211.984 10.808C211.824 10.344 211.464 9.904 210.904 9.488C210.36 9.056 209.664 8.704 208.816 8.432C207.968 8.16 207.024 8.024 205.984 8.024C205.056 8.008 204.168 8.144 203.32 8.432C202.472 8.72 201.776 9.112 201.232 9.608C200.688 10.104 200.416 10.664 200.416 11.288C200.416 12.152 200.672 12.8 201.184 13.232C201.696 13.648 202.368 13.944 203.2 14.12C204.048 14.296 204.976 14.456 205.984 14.6C208.288 14.936 210.408 15.536 212.344 16.4C214.28 17.264 215.832 18.416 217 19.856C218.168 21.296 218.752 23.048 218.752 25.112C218.752 27.208 218.16 29.048 216.976 30.632C215.808 32.2 214.256 33.424 212.32 34.304C210.384 35.184 208.272 35.624 205.984 35.624ZM286.243 35.624C284.355 35.624 282.547 35.328 280.819 34.736C279.091 34.128 277.579 33.264 276.283 32.144C274.987 31.008 274.051 29.656 273.475 28.088L280.243 25.592C280.403 26.056 280.755 26.504 281.299 26.936C281.859 27.368 282.563 27.728 283.411 28.016C284.259 28.288 285.203 28.424 286.243 28.424C287.203 28.424 288.107 28.288 288.955 28.016C289.803 27.728 290.491 27.336 291.019 26.84C291.547 26.344 291.811 25.768 291.811 25.112C291.811 24.44 291.531 23.888 290.971 23.456C290.427 23.008 289.723 22.656 288.859 22.4C288.011 22.128 287.139 21.928 286.243 21.8C283.811 21.448 281.627 20.872 279.691 20.072C277.771 19.256 276.251 18.136 275.131 16.712C274.027 15.288 273.475 13.48 273.475 11.288C273.475 9.192 274.067 7.36 275.251 5.792C276.435 4.208 277.995 2.976 279.931 2.096C281.883 1.216 283.987 0.775997 286.243 0.775997C288.131 0.775997 289.939 1.08 291.667 1.688C293.411 2.28 294.931 3.144 296.227 4.28C297.523 5.416 298.451 6.776 299.011 8.36L292.243 10.808C292.083 10.344 291.723 9.904 291.163 9.488C290.619 9.056 289.923 8.704 289.075 8.432C288.227 8.16 287.283 8.024 286.243 8.024C285.315 8.008 284.427 8.144 283.579 8.432C282.731 8.72 282.035 9.112 281.491 9.608C280.947 10.104 280.675 10.664 280.675 11.288C280.675 12.152 280.931 12.8 281.443 13.232C281.955 13.648 282.627 13.944 283.459 14.12C284.307 14.296 285.235 14.456 286.243 14.6C288.547 14.936 290.667 15.536 292.603 16.4C294.539 17.264 296.091 18.416 297.259 19.856C298.427 21.296 299.011 23.048 299.011 25.112C299.011 27.208 298.419 29.048 297.235 30.632C296.067 32.2 294.515 33.424 292.579 34.304C290.643 35.184 288.531 35.624 286.243 35.624ZM323.483 35V1.4H331.259L343.547 21.992V1.4H350.747V35H342.971L330.683 14.408V35H323.483ZM375.73 35V1.4H397.138V8.6H382.93V13.4H393.874V20.6H382.93V27.8H397.138V35H375.73ZM431.85 1.4H439.962L452.154 35H444.522L442.602 29.72H429.21L427.29 35H419.658L431.85 1.4ZM431.85 22.52H439.962L435.882 11.384L431.85 22.52ZM501.321 35H491.913L483.321 22.856L482.361 24.008V35H475.161V1.4H482.361V12.824L491.913 1.4H501.321L488.025 17.24L501.321 35ZM523.893 35V1.4H545.301V8.6H531.093V13.4H542.037V20.6H531.093V27.8H545.301V35H523.893ZM569.764 35V1.4H583.444C585.284 1.4 586.948 1.864 588.436 2.792C589.924 3.72 591.1 4.968 591.964 6.536C592.844 8.088 593.284 9.8 593.284 11.672C593.284 13.112 593.044 14.456 592.564 15.704C592.084 16.936 591.396 18.032 590.5 18.992C589.62 19.936 588.58 20.696 587.38 21.272L595.348 35H587.044L579.46 21.944H576.964V35H569.764ZM576.964 14.744H582.58C583.22 14.744 583.804 14.584 584.332 14.264C584.86 13.928 585.284 13.488 585.604 12.944C585.924 12.4 586.084 11.8 586.084 11.144C586.084 10.488 585.924 9.888 585.604 9.344C585.284 8.8 584.86 8.368 584.332 8.048C583.804 7.712 583.22 7.544 582.58 7.544H576.964V14.744ZM631.112 35.624C629.224 35.624 627.416 35.328 625.688 34.736C623.96 34.128 622.448 33.264 621.152 32.144C619.856 31.008 618.92 29.656 618.344 28.088L625.112 25.592C625.272 26.056 625.624 26.504 626.168 26.936C626.728 27.368 627.432 27.728 628.28 28.016C629.128 28.288 630.072 28.424 631.112 28.424C632.072 28.424 632.976 28.288 633.824 28.016C634.672 27.728 635.36 27.336 635.888 26.84C636.416 26.344 636.68 25.768 636.68 25.112C636.68 24.44 636.4 23.888 635.84 23.456C635.296 23.008 634.592 22.656 633.728 22.4C632.88 22.128 632.008 21.928 631.112 21.8C628.68 21.448 626.496 20.872 624.56 20.072C622.64 19.256 621.12 18.136 620 16.712C618.896 15.288 618.344 13.48 618.344 11.288C618.344 9.192 618.936 7.36 620.12 5.792C621.304 4.208 622.864 2.976 624.8 2.096C626.752 1.216 628.856 0.775997 631.112 0.775997C633 0.775997 634.808 1.08 636.536 1.688C638.28 2.28 639.8 3.144 641.096 4.28C642.392 5.416 643.32 6.776 643.88 8.36L637.112 10.808C636.952 10.344 636.592 9.904 636.032 9.488C635.488 9.056 634.792 8.704 633.944 8.432C633.096 8.16 632.152 8.024 631.112 8.024C630.184 8.008 629.296 8.144 628.448 8.432C627.6 8.72 626.904 9.112 626.36 9.608C625.816 10.104 625.544 10.664 625.544 11.288C625.544 12.152 625.8 12.8 626.312 13.232C626.824 13.648 627.496 13.944 628.328 14.12C629.176 14.296 630.104 14.456 631.112 14.6C633.416 14.936 635.536 15.536 637.472 16.4C639.408 17.264 640.96 18.416 642.128 19.856C643.296 21.296 643.88 23.048 643.88 25.112C643.88 27.208 643.288 29.048 642.104 30.632C640.936 32.2 639.384 33.424 637.448 34.304C635.512 35.184 633.4 35.624 631.112 35.624Z" fill="#E5E5E5"/>
</svg>
